REM DIRINDEX 1\6,1\2\7,1\2\8,1\2\9,1\3\10,1\3\11,1\4\12,1\4\13,1\4\14,1\5\15,1\5\16,1\5\17
REM DIRNAME folder01,folder02,folder03,folder04,folder05,folder06,folder07,folder08,folder09,folder10,folder11,folder12,folder13,folder14,folder15,folder16,folder17
TITLE ""
FILE "P2Q_t2_0840-0856.mp3" MP3
  TRACK 01 AUDIO
    TITLE "6:cjc040_6352"
    INDEX 01 00:00:00
  TRACK 02 AUDIO
    TITLE "0:"
    INDEX 01 00:05:71
  TRACK 03 AUDIO
    TITLE "7:cjc040_6353"
    INDEX 01 00:07:09
  TRACK 04 AUDIO
    TITLE "0:"
    INDEX 01 00:08:11
  TRACK 05 AUDIO
    TITLE "8:cjc040_6354"
    INDEX 01 00:08:70
  TRACK 06 AUDIO
    TITLE "0:"
    INDEX 01 00:11:27
  TRACK 07 AUDIO
    TITLE "9:cjc040_6355"
    INDEX 01 00:12:09
  TRACK 08 AUDIO
    TITLE "0:"
    INDEX 01 00:13:08
  TRACK 09 AUDIO
    TITLE "7:cjc040_6356"
    INDEX 01 00:15:03
  TRACK 10 AUDIO
    TITLE "0:"
    INDEX 01 00:16:18
  TRACK 11 AUDIO
    TITLE "8:cjc040_6357"
    INDEX 01 00:16:67
  TRACK 12 AUDIO
    TITLE "0:"
    INDEX 01 00:17:69
  TRACK 13 AUDIO
    TITLE "9:cjc040_6358"
    INDEX 01 00:18:56
  TRACK 14 AUDIO
    TITLE "0:"
    INDEX 01 00:20:02
  TRACK 15 AUDIO
    TITLE "7:cjc040_6359"
    INDEX 01 00:21:64
  TRACK 16 AUDIO
    TITLE "0:"
    INDEX 01 00:23:16
  TRACK 17 AUDIO
    TITLE "8:cjc040_6360"
    INDEX 01 00:23:65
  TRACK 18 AUDIO
    TITLE "0:"
    INDEX 01 00:25:45
  TRACK 19 AUDIO
    TITLE "9:cjc040_6361"
    INDEX 01 00:26:20
  TRACK 20 AUDIO
    TITLE "0:"
    INDEX 01 00:27:49
  TRACK 21 AUDIO
    TITLE "7:cjc040_6362"
    INDEX 01 00:29:33
  TRACK 22 AUDIO
    TITLE "0:"
    INDEX 01 00:30:42
  TRACK 23 AUDIO
    TITLE "8:cjc040_6363"
    INDEX 01 00:31:26
  TRACK 24 AUDIO
    TITLE "0:"
    INDEX 01 00:33:40
  TRACK 25 AUDIO
    TITLE "9:cjc040_6364"
    INDEX 01 00:34:20
  TRACK 26 AUDIO
    TITLE "0:"
    INDEX 01 00:35:31
  TRACK 27 AUDIO
    TITLE "7:cjc040_6365"
    INDEX 01 00:37:16
  TRACK 28 AUDIO
    TITLE "0:"
    INDEX 01 00:38:33
  TRACK 29 AUDIO
    TITLE "8:cjc040_6366"
    INDEX 01 00:39:13
  TRACK 30 AUDIO
    TITLE "0:"
    INDEX 01 00:40:30
  TRACK 31 AUDIO
    TITLE "9:cjc040_6367"
    INDEX 01 00:41:06
  TRACK 32 AUDIO
    TITLE "0:"
    INDEX 01 00:42:31
  TRACK 33 AUDIO
    TITLE "7:cjc040_6368"
    INDEX 01 00:44:14
  TRACK 34 AUDIO
    TITLE "0:"
    INDEX 01 00:45:39
  TRACK 35 AUDIO
    TITLE "8:cjc040_6369"
    INDEX 01 00:46:15
  TRACK 36 AUDIO
    TITLE "0:"
    INDEX 01 00:47:28
  TRACK 37 AUDIO
    TITLE "9:cjc040_6370"
    INDEX 01 00:48:08
  TRACK 38 AUDIO
    TITLE "0:"
    INDEX 01 00:49:35
  TRACK 39 AUDIO
    TITLE "7:cjc040_6371"
    INDEX 01 00:51:11
  TRACK 40 AUDIO
    TITLE "0:"
    INDEX 01 00:52:20
  TRACK 41 AUDIO
    TITLE "8:cjc040_6372"
    INDEX 01 00:53:02
  TRACK 42 AUDIO
    TITLE "0:"
    INDEX 01 00:55:18
  TRACK 43 AUDIO
    TITLE "9:cjc040_6373"
    INDEX 01 00:55:67
  TRACK 44 AUDIO
    TITLE "0:"
    INDEX 01 00:57:05
  TRACK 45 AUDIO
    TITLE "7:cjc040_6374"
    INDEX 01 00:58:64
  TRACK 46 AUDIO
    TITLE "0:"
    INDEX 01 01:00:08
  TRACK 47 AUDIO
    TITLE "8:cjc040_6375"
    INDEX 01 01:00:64
  TRACK 48 AUDIO
    TITLE "0:"
    INDEX 01 01:01:66
  TRACK 49 AUDIO
    TITLE "9:cjc040_6376"
    INDEX 01 01:02:44
  TRACK 50 AUDIO
    TITLE "0:"
    INDEX 01 01:03:71
  TRACK 51 AUDIO
    TITLE "7:cjc040_6377"
    INDEX 01 01:05:54
  TRACK 52 AUDIO
    TITLE "0:"
    INDEX 01 01:07:08
  TRACK 53 AUDIO
    TITLE "8:cjc040_6378"
    INDEX 01 01:07:66
  TRACK 54 AUDIO
    TITLE "0:"
    INDEX 01 01:10:41
  TRACK 55 AUDIO
    TITLE "9:cjc040_6379"
    INDEX 01 01:11:19
  TRACK 56 AUDIO
    TITLE "0:"
    INDEX 01 01:12:56
  TRACK 57 AUDIO
    TITLE "7:cjc040_6380"
    INDEX 01 01:14:39
  TRACK 58 AUDIO
    TITLE "0:"
    INDEX 01 01:15:42
  TRACK 59 AUDIO
    TITLE "8:cjc040_6381"
    INDEX 01 01:16:18
  TRACK 60 AUDIO
    TITLE "0:"
    INDEX 01 01:19:28
  TRACK 61 AUDIO
    TITLE "9:cjc040_6382"
    INDEX 01 01:20:12
  TRACK 62 AUDIO
    TITLE "0:"
    INDEX 01 01:21:20
  TRACK 63 AUDIO
    TITLE "7:cjc040_6383"
    INDEX 01 01:23:03
  TRACK 64 AUDIO
    TITLE "0:"
    INDEX 01 01:24:43
  TRACK 65 AUDIO
    TITLE "8:cjc040_6384"
    INDEX 01 01:25:27
  TRACK 66 AUDIO
    TITLE "0:"
    INDEX 01 01:26:60
  TRACK 67 AUDIO
    TITLE "9:cjc040_6385"
    INDEX 01 01:27:40
  TRACK 68 AUDIO
    TITLE "0:"
    INDEX 01 01:29:09
  TRACK 69 AUDIO
    TITLE "7:cjc040_6386"
    INDEX 01 01:30:67
  TRACK 70 AUDIO
    TITLE "0:"
    INDEX 01 01:32:37
  TRACK 71 AUDIO
    TITLE "8:cjc040_6387"
    INDEX 01 01:33:11
  TRACK 72 AUDIO
    TITLE "0:"
    INDEX 01 01:34:48
  TRACK 73 AUDIO
    TITLE "9:cjc040_6388"
    INDEX 01 01:35:29
  TRACK 74 AUDIO
    TITLE "0:"
    INDEX 01 01:36:74
  TRACK 75 AUDIO
    TITLE "7:cjc040_6389"
    INDEX 01 01:38:55
  TRACK 76 AUDIO
    TITLE "0:"
    INDEX 01 01:40:15
  TRACK 77 AUDIO
    TITLE "8:cjc040_6390"
    INDEX 01 01:40:66
  TRACK 78 AUDIO
    TITLE "0:"
    INDEX 01 01:42:08
  TRACK 79 AUDIO
    TITLE "9:cjc040_6391"
    INDEX 01 01:42:57
  TRACK 80 AUDIO
    TITLE "0:"
    INDEX 01 01:44:17
  TRACK 81 AUDIO
    TITLE "7:cjc040_6392"
    INDEX 01 01:46:02
  TRACK 82 AUDIO
    TITLE "0:"
    INDEX 01 01:47:25
  TRACK 83 AUDIO
    TITLE "8:cjc040_6393"
    INDEX 01 01:48:05
  TRACK 84 AUDIO
    TITLE "0:"
    INDEX 01 01:49:73
  TRACK 85 AUDIO
    TITLE "9:cjc040_6394"
    INDEX 01 01:50:49
  TRACK 86 AUDIO
    TITLE "0:"
    INDEX 01 01:51:70
  TRACK 87 AUDIO
    TITLE "7:cjc040_6395"
    INDEX 01 01:53:51
  TRACK 88 AUDIO
    TITLE "0:"
    INDEX 01 01:55:09
  TRACK 89 AUDIO
    TITLE "8:cjc040_6396"
    INDEX 01 01:55:62
  TRACK 90 AUDIO
    TITLE "0:"
    INDEX 01 01:57:74
  TRACK 91 AUDIO
    TITLE "9:cjc040_6397"
    INDEX 01 01:58:48
  TRACK 92 AUDIO
    TITLE "0:"
    INDEX 01 02:00:08
  TRACK 93 AUDIO
    TITLE "7:cjc040_6398"
    INDEX 01 02:01:58
  TRACK 94 AUDIO
    TITLE "0:"
    INDEX 01 02:03:02
  TRACK 95 AUDIO
    TITLE "8:cjc040_6399"
    INDEX 01 02:03:61
  TRACK 96 AUDIO
    TITLE "0:"
    INDEX 01 02:06:14
  TRACK 97 AUDIO
    TITLE "9:cjc040_6400"
    INDEX 01 02:06:67
  TRACK 98 AUDIO
    TITLE "0:"
    INDEX 01 02:08:11
  TRACK 99 AUDIO
    TITLE "7:cjc040_6401"
    INDEX 01 02:09:71
  TRACK 100 AUDIO
    TITLE "0:"
    INDEX 01 02:11:19
  TRACK 101 AUDIO
    TITLE "8:cjc040_6402"
    INDEX 01 02:11:74
  TRACK 102 AUDIO
    TITLE "0:"
    INDEX 01 02:13:28
  TRACK 103 AUDIO
    TITLE "9:cjc040_6403"
    INDEX 01 02:14:08
  TRACK 104 AUDIO
    TITLE "0:"
    INDEX 01 02:15:31
